<?xml version="1.0" standalone="no"?>
<!DOCTYPE svg PUBLIC "-//W3C//DTD SVG 20010904//EN"
 "http://www.w3.org/TR/2001/REC-SVG-20010904/DTD/svg10.dtd">
<svg version="1.0" xmlns="http://www.w3.org/2000/svg"
 width="446.000000pt" height="620.000000pt" viewBox="0 0 446.000000 620.000000"
 preserveAspectRatio="xMidYMid meet">
<metadata>
Created by potrace 1.16, written by Peter Selinger 2001-2019
</metadata>
<g transform="translate(0.000000,620.000000) scale(0.100000,-0.100000)"
fill="#a65cf0" stroke="none">
<path d="M2415 6171 c-21 -12 -45 -21 -52 -21 -19 0 -53 -31 -70 -65 -8 -16
-23 -39 -33 -50 -19 -22 -32 -70 -32 -125 -1 -45 6 -76 26 -122 9 -21 16 -59
16 -86 0 -135 126 -311 234 -327 41 -7 45 -9 55 -48 5 -23 8 -43 6 -45 -2 -2
-19 -4 -39 -4 -21 0 -41 -7 -52 -19 -9 -10 -23 -19 -29 -19 -7 0 -18 -6 -24
-14 -9 -11 -19 -12 -44 -4 -74 23 -215 36 -327 31 -185 -9 -234 -7 -307 12
-37 10 -72 22 -78 26 -5 4 -43 19 -84 33 -41 14 -84 32 -97 40 -21 14 -134 63
-164 72 -8 2 -59 15 -113 28 -115 29 -279 84 -356 120 -26 12 -194 13 -254 2
-23 -4 -37 -13 -37 -22 0 -9 -10 -14 -28 -14 -49 0 -205 -17 -275 -31 -111
-21 -80 -62 43 -56 38 1 70 -1 70 -6 0 -5 -15 -26 -33 -47 -17 -21 -41 -56
-52 -77 -11 -21 -26 -44 -33 -52 -19 -19 -11 -40 21 -59 27 -16 29 -16 45 3 9
11 26 20 36 20 12 0 27 14 39 35 30 54 63 80 102 80 19 0 44 4 57 9 70 28 84
31 160 31 44 0 65 -6 92 -23 19 -13 49 -30 67 -37 19 -8 36 -16 39 -19 7 -8
45 -30 100 -58 24 -13 46 -27 50 -31 4 -6 94 -51 235 -117 28 -13 91 -36 140
-50 50 -15 112 -34 139 -42 26 -9 74 -21 105 -28 31 -7 97 -25 146 -40 50 -15
144 -42 210 -60 152 -42 167 -48 201 -82 26 -25 136 -167 174 -223 8 -12 29
-42 47 -65 22 -30 37 -65 48 -116 8 -41 19 -75 25 -77 5 -2 10 -13 10 -24 0
-12 13 -33 29 -49 16 -15 25 -29 19 -31 -6 -2 3 -17 20 -33 30 -28 31 -32 27
-90 -3 -33 -7 -91 -9 -128 -3 -38 -11 -77 -18 -86 -7 -10 -30 -41 -51 -69 -21
-28 -41 -52 -45 -54 -14 -6 -72 -99 -78 -126 -4 -15 -20 -54 -35 -87 -43 -93
-65 -166 -79 -265 -4 -30 -15 -86 -23 -125 -15 -64 -15 -71 1 -88 9 -10 24
-16 35 -13 16 4 18 -1 17 -32 -3 -71 -1 -82 19 -82 11 0 21 -4 23 -9 2 -5 25
-18 52 -28 47 -17 51 -21 62 -66 7 -27 18 -96 25 -155 6 -59 24 -167 39 -241
18 -88 25 -142 19 -155 -4 -12 -13 -45 -19 -75 -14 -74 -35 -104 -131 -191
-170 -156 -220 -222 -245 -324 -9 -39 -22 -74 -28 -78 -6 -4 -8 -8 -4 -8 3 0
-13 -35 -36 -78 -134 -243 -156 -272 -208 -272 -18 0 -49 -4 -68 -9 -19 -5
-56 -12 -81 -16 -32 -4 -62 -18 -95 -43 -51 -39 -83 -71 -84 -85 0 -9 -61 -67
-71 -67 -3 0 -23 -13 -44 -30 -51 -41 -80 -39 -106 5 -12 20 -29 35 -39 35
-16 0 -18 -6 -13 -37 3 -21 11 -45 18 -53 6 -8 18 -31 25 -50 7 -19 17 -40 22
-46 4 -6 35 -67 68 -135 33 -68 67 -135 76 -149 8 -14 28 -52 44 -85 39 -77
117 -203 158 -254 18 -22 32 -45 32 -50 0 -6 8 -11 18 -11 9 0 33 -3 53 -6
l36 -6 15 53 c13 49 18 55 54 67 72 23 95 49 103 121 5 41 3 86 -6 129 -7 37
-13 101 -13 143 -1 70 2 82 34 140 l36 64 0 -55 c0 -30 6 -63 14 -72 12 -16
14 -16 29 3 22 25 37 17 33 -19 -3 -34 20 -82 39 -82 17 0 17 -5 15 124 -1 62
-7 113 -16 135 -15 37 -11 47 21 53 21 4 51 51 35 56 -6 2 -10 15 -10 28 0 13
-4 24 -10 24 -5 0 -10 13 -10 28 0 15 -5 33 -10 38 -14 14 39 78 140 170 105
96 175 167 196 200 l19 28 11 -74 c17 -111 49 -227 90 -332 20 -51 41 -121 47
-155 10 -58 9 -64 -8 -77 -18 -13 -20 -29 -23 -135 -4 -133 8 -232 39 -325 23
-67 68 -168 79 -176 4 -3 15 -20 24 -37 10 -20 27 -35 44 -40 29 -7 111 -63
112 -76 0 -11 26 -37 37 -37 4 0 21 -12 36 -26 28 -26 81 -47 91 -36 14 13
-11 102 -35 122 -14 12 -17 39 -4 44 8 3 16 0 18 -7 3 -8 13 -3 29 13 61 65
82 129 67 204 -12 54 -75 261 -88 286 -4 8 -20 55 -36 104 -15 49 -41 111 -58
138 -27 43 -36 50 -64 47 -26 -2 -29 179 -7 346 15 116 13 239 -6 304 -11 39
8 167 35 246 14 38 30 98 36 134 5 36 16 79 24 96 7 16 19 57 25 90 8 38 29
87 57 133 85 141 223 464 223 525 0 9 7 17 16 17 11 0 14 8 12 26 -3 22 3 28
36 39 21 8 42 19 46 25 4 6 3 36 -2 68 -7 53 -6 58 17 79 14 12 25 25 25 28 0
13 28 34 35 27 4 -4 5 13 1 38 -16 103 -26 183 -41 330 -9 85 -24 184 -34 220
-27 92 -33 188 -20 315 6 61 13 136 15 167 1 32 6 63 11 70 9 16 10 19 27 147
8 57 19 108 25 114 7 7 10 4 9 -9 -2 -42 91 -202 179 -309 18 -22 51 -62 73
-88 22 -26 56 -81 75 -122 22 -44 44 -76 55 -80 12 -4 20 -15 20 -29 0 -12 7
-31 15 -42 8 -10 14 -39 15 -64 0 -25 10 -76 22 -113 19 -60 20 -72 9 -100
-20 -48 -20 -82 2 -81 9 1 17 -2 17 -7 0 -5 -4 -9 -9 -9 -5 0 -14 -14 -21 -31
-10 -23 -10 -39 -1 -70 14 -46 25 -48 63 -12 27 26 28 26 28 5 0 -24 24 -30
43 -9 13 13 51 105 62 147 3 14 13 48 22 76 15 48 15 53 -6 117 -13 37 -29 73
-36 81 -8 7 -12 16 -9 18 5 5 -11 57 -32 104 -7 17 -19 54 -25 82 -6 28 -23
69 -39 91 -16 22 -32 53 -36 68 -3 15 -21 58 -39 94 -19 36 -39 86 -45 110
-14 53 -45 123 -108 244 -26 50 -56 110 -67 135 -11 24 -50 104 -87 177 -39
77 -70 152 -74 180 -4 26 -20 80 -36 118 -16 39 -30 74 -31 79 -7 32 -105 131
-142 143 -35 12 -236 8 -309 -6 -128 -24 -140 -24 -166 6 -13 15 -29 52 -36
82 -11 45 -10 61 2 98 27 80 10 205 -46 328 -11 22 -27 60 -38 85 -11 25 -35
57 -53 71 -68 52 -99 62 -204 66 -87 4 -105 2 -140 -16z m-779 -5332 c20 -22
47 -141 33 -150 -6 -3 -6 -16 1 -33 16 -44 13 -55 -17 -51 -16 1 -27 8 -26 14
2 5 -3 8 -11 5 -8 -3 -18 7 -27 28 -7 18 -18 36 -23 40 -11 7 -11 151 -1 168
8 12 53 -1 71 -21z"/>
</g>
</svg>
