<?xml version="1.0" standalone="no"?>
<!DOCTYPE svg PUBLIC "-//W3C//DTD SVG 20010904//EN"
 "http://www.w3.org/TR/2001/REC-SVG-20010904/DTD/svg10.dtd">
<svg version="1.0" xmlns="http://www.w3.org/2000/svg"
 width="444.000000pt" height="619.000000pt" viewBox="0 0 444.000000 619.000000"
 preserveAspectRatio="xMidYMid meet">
<metadata>
Created by potrace 1.16, written by Peter Selinger 2001-2019
</metadata>
<g transform="translate(0.000000,619.000000) scale(0.100000,-0.100000)"
fill="#fff" stroke="none">
<path d="M3836 6045 c-15 -8 -36 -15 -46 -15 -18 0 -50 -30 -50 -47 0 -6 -21
-37 -46 -69 -25 -33 -44 -50 -41 -39 14 48 17 91 8 105 -14 21 -47 -12 -80
-80 -19 -40 -39 -63 -74 -86 -68 -44 -86 -63 -112 -114 -35 -70 -40 -157 -14
-275 12 -55 24 -138 26 -185 4 -76 3 -88 -17 -113 -24 -31 -65 -36 -108 -13
-15 8 -46 23 -69 33 -23 10 -43 24 -43 31 0 7 -13 12 -29 12 -16 0 -48 7 -72
16 -24 8 -65 19 -92 24 -26 5 -73 27 -105 47 -88 58 -95 62 -127 77 -71 32
-126 45 -185 41 -34 -2 -67 -8 -73 -14 -6 -6 -19 -11 -28 -11 -10 0 -31 -17
-46 -37 -15 -21 -31 -40 -36 -41 -4 -2 -4 -8 -1 -13 3 -6 -6 -19 -19 -30 -14
-10 -36 -36 -48 -56 -13 -20 -24 -32 -26 -26 -3 7 -17 6 -43 -3 -28 -10 -98
-14 -234 -14 l-195 -1 -35 32 c-19 17 -38 44 -41 60 -6 28 -9 29 -60 29 -60 0
-88 -8 -79 -21 3 -5 2 -8 -3 -7 -12 3 -53 -12 -53 -20 0 -4 -21 -8 -47 -9 -32
-2 -52 -8 -60 -20 -7 -9 -13 -11 -13 -5 0 8 -17 12 -45 12 l-46 0 7 -34 c8
-45 -10 -96 -43 -120 -14 -11 -23 -14 -19 -8 18 30 -16 7 -53 -34 -64 -73 -94
-145 -99 -237 -2 -42 -1 -88 2 -102 6 -22 9 -24 26 -15 16 9 18 8 13 -6 -4
-10 -2 -15 3 -11 5 3 20 -16 32 -41 13 -29 16 -39 6 -27 -16 19 -16 19 -9 -5
11 -37 38 -72 101 -129 33 -30 63 -50 71 -47 8 3 11 1 8 -4 -8 -14 34 -53 51
-46 21 8 12 -18 -9 -26 -10 -4 -16 -12 -13 -17 7 -10 -22 -24 -34 -16 -5 3
-14 -4 -20 -15 -6 -12 -17 -19 -24 -17 -34 13 -98 -57 -144 -159 -36 -80 -38
-88 -17 -80 25 9 17 -22 -10 -40 -14 -9 -25 -23 -25 -31 0 -8 -7 -28 -16 -45
-9 -16 -11 -27 -6 -24 6 4 8 -2 5 -14 -3 -11 -10 -20 -15 -20 -6 0 -8 -7 -4
-15 4 -12 2 -13 -13 -5 -16 8 -23 3 -44 -33 -13 -23 -28 -53 -31 -67 l-7 -25
21 25 21 25 -18 -38 c-11 -21 -30 -44 -43 -50 -33 -16 -36 -40 -14 -103 13
-40 25 -56 46 -65 29 -12 41 -33 13 -22 -9 3 -15 1 -13 -4 2 -5 -15 -27 -37
-49 -48 -47 -82 -74 -71 -56 13 22 1 13 -52 -37 -29 -27 -52 -54 -52 -61 0 -6
5 -8 12 -4 23 15 -3 -16 -32 -36 -27 -19 -29 -19 -24 -3 6 16 -75 -66 -197
-201 -42 -48 -61 -96 -37 -96 7 0 7 -4 1 -12 -6 -7 -10 -38 -9 -68 1 -50 3
-55 25 -58 13 -2 27 1 31 7 10 18 34 4 48 -28 7 -16 25 -41 40 -56 25 -25 31
-27 102 -23 55 3 90 11 130 30 30 15 67 30 83 33 15 4 30 11 33 16 16 26 224
-4 224 -32 0 -5 7 -9 15 -9 8 0 15 -4 15 -10 0 -5 5 -10 12 -10 6 0 34 -17 62
-39 89 -67 97 -70 157 -67 31 2 63 7 70 12 14 9 42 14 87 15 12 1 47 -17 77
-40 30 -23 56 -41 59 -41 4 0 69 -56 106 -90 8 -9 32 -26 53 -39 20 -12 37
-26 37 -30 0 -5 28 -27 63 -51 34 -24 71 -51 82 -61 11 -10 53 -36 94 -59 41
-23 102 -65 135 -94 34 -28 72 -58 86 -67 l24 -16 -31 -104 c-28 -90 -46 -168
-48 -204 0 -5 -3 -15 -7 -20 -3 -6 -6 -96 -6 -200 0 -263 -3 -288 -53 -435
-16 -47 -29 -95 -29 -107 0 -11 -7 -39 -15 -62 -13 -38 -13 -41 3 -41 14 -1
14 -4 -5 -19 -15 -13 -19 -21 -11 -29 7 -7 4 -16 -11 -31 -12 -12 -21 -27 -21
-35 0 -8 -6 -16 -13 -19 -7 -3 -12 -23 -11 -53 1 -104 4 -135 14 -129 6 4 5
-5 -2 -20 -10 -21 -9 -28 2 -35 10 -6 11 -12 3 -22 -16 -20 -3 -85 23 -113 12
-14 19 -25 14 -25 -6 0 -10 -13 -10 -29 0 -39 -15 -49 -85 -54 -40 -3 -62 -9
-69 -20 -18 -29 6 -37 127 -44 74 -4 117 -10 117 -17 0 -8 3 -8 8 0 5 7 41 8
112 2 122 -9 613 -7 650 2 14 4 26 12 26 18 1 7 2 16 3 20 0 5 17 25 36 45
l35 36 -28 23 c-16 13 -31 35 -35 48 -6 24 -5 24 8 6 13 -17 15 -17 15 -3 0
11 7 15 21 12 18 -4 20 -1 14 28 -4 18 -14 48 -23 67 -14 29 -26 37 -77 53
-33 10 -93 34 -133 53 -40 19 -79 34 -86 34 -8 0 -16 6 -18 12 -4 10 -10 10
-32 0 -23 -10 -30 -10 -42 3 -14 13 -14 15 0 15 9 0 16 5 16 10 0 13 -17 13
-25 -1 -4 -5 -17 -9 -28 -7 -12 1 -28 -1 -34 -5 -7 -5 -21 -3 -30 3 -16 11
-16 11 -1 6 10 -3 20 -1 24 5 3 6 12 8 20 5 8 -3 17 1 20 9 4 8 10 12 15 9 5
-3 9 0 9 7 0 8 -11 9 -36 4 -34 -6 -36 -5 -20 10 33 34 18 42 -39 20 -19 -8
-19 -7 1 11 12 10 24 29 28 42 6 19 4 25 -13 29 -20 5 -20 8 -8 27 8 12 13 42
12 69 -1 29 3 50 10 55 16 9 29 108 15 117 -5 3 -10 -3 -10 -14 0 -11 -4 -22
-9 -26 -6 -3 -6 6 -1 25 6 21 5 38 -4 55 -14 27 -14 40 4 125 7 30 12 62 12
70 0 8 7 38 16 65 9 28 17 55 18 62 1 7 9 40 17 75 9 35 19 84 23 110 3 26 10
46 14 43 5 -3 6 4 3 15 -3 11 0 26 6 33 6 8 9 16 6 18 -8 9 24 217 39 250 8
19 29 57 45 84 17 28 52 93 78 145 27 52 51 97 54 100 3 3 14 28 23 57 9 28
24 57 32 63 7 7 14 16 14 21 0 4 18 27 41 51 23 24 52 63 65 88 31 57 51 92
86 153 16 26 28 53 28 60 0 8 11 36 25 63 14 27 25 58 25 69 0 11 9 45 20 75
11 30 33 117 49 194 17 76 31 140 33 141 5 5 200 46 246 52 23 3 69 0 101 -7
57 -12 61 -11 92 11 18 13 29 16 24 8 -7 -12 -6 -12 7 -1 11 8 35 11 72 8 31
-2 58 -1 60 2 2 4 1 22 -1 39 -4 27 -17 40 -65 73 -32 21 -76 42 -96 45 -92
15 -99 22 -225 209 -15 22 -26 49 -23 59 3 13 -5 24 -29 38 -18 11 -36 28 -39
37 -5 15 -4 15 7 2 6 -8 18 -16 25 -18 10 -2 9 4 -2 26 -8 15 -18 46 -22 67
-8 45 -26 63 -35 37 -4 -10 -8 3 -10 30 -4 43 -2 47 15 42 16 -5 18 -3 12 17
-4 13 -7 67 -6 119 1 124 -33 254 -70 273 -20 10 -26 24 -35 78 -8 48 -22 82
-49 123 -20 31 -34 61 -30 68 4 6 3 8 -3 5 -6 -4 -17 1 -24 10 -12 14 -11 15
6 10 120 -35 142 -39 199 -33 33 3 70 13 82 21 32 21 41 101 21 186 -9 35 -18
94 -21 131 -6 65 -32 156 -76 268 -56 144 -63 169 -50 200 7 16 35 51 63 77
28 27 61 58 74 71 13 12 28 22 34 22 6 0 8 3 6 8 -10 16 13 52 33 52 11 0 20
6 20 13 0 6 15 24 33 38 35 28 133 166 125 175 -3 2 -17 0 -32 -6 l-26 -10 15
30 c14 28 14 30 -2 30 -10 0 -31 -7 -47 -15z m-1623 -1697 c12 -6 36 -26 52
-44 29 -32 82 -51 78 -28 -1 7 15 8 48 4 27 -4 71 -4 99 0 32 4 61 2 80 -7 23
-9 29 -9 24 0 -5 9 -4 9 6 0 8 -7 22 -8 43 -2 48 14 95 0 131 -37 18 -19 38
-34 45 -34 11 0 10 -78 -2 -110 -3 -8 -11 -32 -17 -52 -7 -25 -23 -44 -45 -58
-24 -15 -38 -33 -45 -59 -5 -20 -16 -45 -24 -56 -9 -11 -16 -28 -16 -37 0 -9
-15 -50 -34 -91 -47 -104 -66 -242 -50 -377 12 -104 6 -148 -31 -225 -31 -67
-34 -105 -5 -98 25 7 25 7 -4 -107 -25 -100 -28 -229 -6 -270 6 -11 8 -20 4
-20 -3 0 -2 -6 4 -13 19 -22 2 -147 -19 -147 -10 0 -28 15 -97 77 -26 24 -52
43 -59 43 -6 0 -33 16 -59 36 -43 33 -83 57 -196 116 -21 11 -38 24 -38 29 0
14 -72 41 -83 30 -5 -5 -36 4 -78 25 -38 19 -75 34 -83 34 -25 0 -46 12 -46
26 0 12 -19 19 -42 15 -5 0 -8 3 -8 8 0 5 -19 30 -43 55 -33 34 -54 72 -87
154 -23 60 -52 120 -62 133 l-20 24 7 -28 c5 -26 4 -27 -15 -17 -11 6 -20 15
-20 21 0 6 -4 7 -10 4 -15 -9 -51 14 -90 58 -87 101 -97 109 -128 104 -46 -8
-57 4 -39 44 9 19 19 45 22 58 8 26 45 71 45 55 0 -5 5 -2 10 6 12 19 13 63 1
56 -5 -4 -12 0 -15 6 -4 7 -4 2 -2 -11 3 -17 2 -21 -6 -13 -11 11 8 79 28 97
18 17 94 113 94 118 0 4 22 29 49 56 27 28 52 59 56 71 3 11 9 20 13 20 12 0
88 74 100 96 6 11 33 29 59 39 54 20 164 89 164 102 1 17 86 60 144 72 33 7
83 20 110 29 28 9 53 16 57 17 3 0 10 3 14 8 10 9 11 9 37 -5z m-1060 -1080
c10 -27 -6 -82 -34 -116 -13 -17 -43 -30 -104 -44 -71 -17 -88 -25 -100 -47
-8 -14 -14 -20 -15 -12 0 11 -3 11 -17 0 -16 -13 -17 -12 -5 3 11 14 10 20 -8
38 -14 14 -19 28 -15 43 11 39 28 67 44 72 22 7 91 69 91 80 0 6 33 9 77 8 71
-1 78 -3 86 -25z m-359 -218 c16 -6 26 -17 26 -29 0 -24 -60 -92 -73 -84 -6 4
-8 0 -4 -11 4 -10 3 -15 -3 -11 -6 3 -13 -1 -16 -9 -3 -9 -10 -14 -14 -11 -4
3 -10 -2 -14 -10 -7 -20 -55 -19 -62 0 -4 8 1 26 10 40 16 24 116 135 122 135
1 0 14 -4 28 -10z m1716 -2630 c-12 -8 -12 -10 5 -10 30 -1 126 -35 165 -59
19 -11 42 -21 51 -21 10 0 19 -11 22 -27 10 -52 -2 -55 -167 -48 -185 7 -186
7 -198 29 -12 21 6 71 21 62 11 -7 49 24 53 44 4 19 28 39 48 40 13 0 13 -1 0
-10z"/>
</g>
</svg>
