<?xml version="1.0" standalone="no"?>
<!DOCTYPE svg PUBLIC "-//W3C//DTD SVG 20010904//EN"
 "http://www.w3.org/TR/2001/REC-SVG-20010904/DTD/svg10.dtd">
<svg version="1.0" xmlns="http://www.w3.org/2000/svg"
 width="534.000000pt" height="741.000000pt" viewBox="0 0 534.000000 741.000000"
 preserveAspectRatio="xMidYMid meet">
<metadata>
Created by potrace 1.16, written by Peter Selinger 2001-2019
</metadata>
<g transform="translate(0.000000,741.000000) scale(0.100000,-0.100000)"
fill="#a65cf0" stroke="none">
<path d="M2643 7391 c-29 -9 -58 -22 -65 -29 -7 -7 -17 -12 -24 -12 -6 0 -19
-11 -27 -24 -9 -12 -30 -31 -49 -40 -58 -30 -77 -42 -96 -59 -10 -10 -23 -17
-28 -17 -11 -1 -64 -46 -64 -55 0 -8 -48 -135 -59 -155 -5 -8 -16 -41 -25 -72
-16 -54 -15 -60 2 -115 10 -32 25 -78 32 -103 14 -45 38 -87 72 -124 9 -10 20
-31 23 -46 3 -15 11 -27 18 -27 7 0 24 -1 39 -1 24 -2 25 -4 15 -27 -8 -16
-20 -25 -34 -25 -24 0 -158 -98 -182 -133 -9 -12 -26 -33 -38 -47 -13 -14 -23
-28 -23 -31 0 -4 -28 -20 -62 -37 -35 -16 -79 -47 -98 -67 -19 -21 -54 -56
-77 -78 -24 -22 -43 -44 -43 -47 0 -14 30 -6 35 9 6 20 46 47 43 29 -4 -15 22
-18 40 -5 9 7 11 5 6 -9 -6 -15 -4 -17 6 -7 18 17 5 49 -14 34 -11 -9 -16 -9
-22 0 -4 7 -3 9 3 6 6 -4 16 0 23 8 11 13 10 15 -6 9 -18 -5 -18 -5 1 10 18
15 20 15 27 -4 4 -11 12 -20 18 -20 5 0 10 -8 10 -18 0 -10 5 -23 12 -30 9 -9
9 -12 0 -12 -7 0 -12 -7 -12 -15 0 -21 -13 -19 -35 5 -10 11 -22 20 -27 20
-13 0 -10 -22 6 -39 7 -9 16 -25 20 -36 5 -18 2 -20 -39 -17 -43 4 -75 29 -58
46 9 9 -2 7 -32 -4 -17 -7 -24 -7 -20 0 3 6 13 10 21 10 8 0 14 4 14 9 0 26
-40 -3 -80 -58 -132 -183 -188 -296 -206 -414 -34 -227 -1 -372 96 -422 36
-18 45 -19 62 -2 7 8 49 22 92 32 43 10 91 28 105 39 37 30 65 44 119 62 26 9
54 22 63 30 33 29 57 17 85 -43 14 -32 28 -73 31 -90 3 -18 9 -33 13 -33 8 0
25 -52 45 -145 9 -38 22 -76 29 -85 17 -19 46 -106 46 -137 0 -12 4 -42 10
-65 10 -45 37 -183 45 -233 3 -16 5 -40 5 -52 0 -14 6 -23 15 -23 9 0 12 -6 9
-15 -4 -9 0 -15 7 -15 11 0 11 -3 -1 -10 -12 -8 -12 -10 5 -10 18 -1 19 -1 3
-11 -10 -5 -18 -15 -18 -21 0 -6 7 -5 16 3 15 12 16 11 11 -6 -24 -80 -27
-106 -17 -124 14 -27 13 -52 -5 -104 -8 -24 -16 -70 -18 -103 -1 -32 -5 -64
-8 -69 -7 -11 -5 -99 5 -280 9 -150 10 -156 34 -235 11 -36 23 -78 26 -95 21
-95 125 -391 161 -457 8 -14 15 -34 15 -43 0 -10 16 -46 35 -82 19 -36 35 -71
35 -79 0 -8 5 -14 11 -14 5 0 8 -4 5 -9 -3 -5 6 -30 20 -56 13 -26 28 -68 31
-94 8 -59 28 -107 50 -120 10 -6 14 -11 10 -11 -10 0 20 -56 46 -86 22 -26 38
-112 43 -221 1 -45 7 -99 13 -120 11 -40 -7 -138 -36 -195 -7 -16 -11 -28 -7
-28 4 0 1 -7 -6 -15 -6 -8 -13 -40 -16 -72 -3 -55 -7 -89 -18 -158 -7 -51 -26
-88 -59 -120 -18 -18 -39 -47 -48 -66 -13 -27 -61 -169 -64 -189 -1 -3 -5 -32
-9 -65 -4 -33 -13 -69 -21 -80 -8 -14 -10 -34 -6 -60 4 -22 3 -51 -1 -65 -27
-91 -79 -279 -82 -300 -3 -14 -5 -27 -6 -30 -4 -12 2 -88 11 -130 13 -60 13
-61 29 -90 21 -38 33 -144 18 -165 -3 -6 0 -18 7 -29 13 -17 15 -17 30 -2 9 9
18 22 19 29 4 32 46 87 66 87 80 0 236 216 245 340 2 19 8 48 14 63 6 16 11
39 11 52 0 13 14 48 30 78 17 30 30 64 30 75 0 11 7 25 15 32 8 7 15 20 15 29
1 9 16 41 35 71 45 71 55 95 69 154 16 66 36 72 36 11 0 -43 7 -72 47 -201 9
-31 12 -57 7 -65 -12 -20 -5 -72 12 -85 18 -14 18 -34 -2 -95 -22 -67 -14
-148 21 -200 14 -21 31 -39 39 -39 7 0 19 -7 26 -15 9 -11 16 -13 24 -5 5 5
17 10 25 10 15 0 116 -98 116 -114 0 -5 8 -10 17 -12 10 -1 33 -17 51 -36 37
-36 44 -41 129 -106 77 -57 102 -54 58 8 -11 15 -17 29 -15 32 3 3 -2 24 -10
47 -17 49 -16 91 1 91 17 0 22 29 12 59 -8 22 -12 175 -9 313 1 44 -5 70 -25
110 -33 64 -56 142 -53 176 1 15 -3 38 -9 52 -5 14 -17 42 -26 63 -9 20 -20
37 -25 37 -6 0 -13 10 -17 23 -3 12 -14 33 -23 47 -10 15 -16 42 -15 70 1 25
-4 55 -12 68 -8 12 -12 27 -9 32 3 5 1 11 -5 15 -11 7 -50 92 -50 110 0 7 -6
15 -13 18 -17 6 -30 77 -64 343 -2 22 1 60 8 85 23 79 52 268 49 317 -3 49 -2
71 7 157 6 50 15 101 22 114 7 13 10 32 7 44 -3 12 3 34 14 52 10 17 27 71 36
120 9 50 25 107 36 127 10 21 18 48 18 61 0 14 11 59 25 101 16 50 25 100 25
144 0 37 5 85 10 108 5 22 12 114 15 203 3 90 8 168 12 174 11 18 3 210 -12
282 -7 39 -19 101 -25 139 -6 39 -14 75 -18 80 -3 6 -8 20 -9 31 -2 10 -12 34
-23 53 -11 18 -20 44 -20 57 0 13 -4 26 -9 30 -5 3 -12 19 -16 36 -6 24 -2 36
16 55 21 22 23 35 24 117 0 114 -49 390 -66 372 -3 -2 -6 36 -8 87 -3 110 -13
167 -41 233 -15 35 -20 62 -17 90 9 70 26 155 32 165 9 14 35 12 67 -4 31 -16
163 -53 250 -70 31 -6 63 -17 70 -23 19 -20 31 -16 66 20 43 44 57 135 42 268
-5 52 -11 106 -13 121 -2 15 -11 36 -20 46 -9 10 -17 24 -17 30 0 7 -4 12 -8
12 -5 0 -17 16 -28 35 -16 30 -21 33 -30 20 -6 -8 -14 -12 -17 -8 -10 10 -8
25 2 19 5 -3 11 1 14 9 4 8 -12 34 -37 62 -40 43 -45 46 -61 33 -17 -14 -17
-14 -5 5 10 18 9 26 -13 60 -46 71 -69 96 -126 137 -31 22 -61 46 -66 52 -6 6
-33 30 -62 53 -49 41 -56 43 -145 53 -51 6 -146 12 -210 13 -65 1 -118 5 -118
10 0 4 7 7 15 7 8 0 15 5 15 11 0 5 -6 7 -12 4 -7 -4 -6 0 4 7 16 14 50 122
41 132 -2 2 1 15 8 28 15 26 13 62 -3 95 -11 22 -7 29 37 74 l20 20 -20 -6
c-15 -5 -12 1 11 22 41 37 50 96 24 172 -10 31 -23 97 -30 146 -6 50 -18 104
-27 122 -8 18 -12 36 -9 41 3 4 -4 23 -14 40 -14 23 -24 30 -36 25 -13 -5 -16
-2 -11 10 4 12 1 17 -9 17 -10 0 -14 6 -11 14 4 9 -11 21 -45 35 -44 18 -69
21 -202 20 -112 -1 -164 -5 -203 -18z m910 -1112 c-12 -12 -7 -39 9 -39 5 0 8
6 6 14 -3 15 10 23 14 9 3 -13 38 -48 46 -47 12 2 86 -66 88 -81 3 -20 -20
-19 -37 1 -12 15 -11 16 11 9 14 -4 23 -6 20 -4 -3 2 -15 12 -27 22 -21 19
-21 19 -19 -17 1 -19 5 -38 9 -42 9 -10 9 -84 -1 -84 -9 0 -35 -40 -29 -46 2
-3 16 0 31 5 24 10 26 15 26 68 0 46 4 61 18 70 12 7 24 8 33 2 11 -7 10 -9
-4 -9 -10 0 -15 -5 -12 -10 4 -6 11 -8 16 -5 5 4 4 -5 -3 -20 -10 -22 -9 -29
6 -43 16 -16 17 -16 11 10 -4 15 -4 32 0 37 7 13 72 -58 66 -73 -2 -6 -4 -22
-5 -35 -1 -19 5 -25 26 -28 14 -2 30 1 33 7 10 17 35 -8 28 -27 -4 -10 -2 -14
5 -9 6 3 14 2 17 -4 4 -6 1 -9 -7 -8 -7 2 -14 -7 -16 -19 -2 -17 -10 -23 -28
-23 -33 0 -29 -34 4 -38 24 -4 25 -4 16 -26 -3 -9 -13 -16 -21 -16 -8 0 -13
-6 -11 -12 6 -18 48 -38 80 -38 17 0 28 -6 31 -17 3 -10 5 -3 6 15 1 20 -3 31
-9 27 -5 -3 -10 -1 -10 4 0 6 -13 11 -30 11 -16 0 -30 4 -30 9 0 4 17 7 38 6
l39 -2 -14 29 c-8 15 -19 28 -24 28 -12 0 -12 -17 1 -25 13 -8 13 -25 1 -25
-5 0 -16 14 -25 31 -14 27 -14 30 0 25 8 -3 17 1 21 10 5 12 10 10 25 -14 23
-36 48 -130 40 -150 -3 -10 -1 -13 6 -8 14 9 15 -3 2 -24 -8 -13 -10 -13 -10
2 0 10 -13 24 -30 33 -45 23 -56 18 -24 -13 17 -15 30 -37 31 -48 1 -10 4 -36
8 -56 6 -31 5 -38 -8 -38 -17 0 -27 20 -27 56 0 30 -14 31 -28 2 -10 -23 -10
-23 -21 7 -19 50 -75 81 -158 89 -49 5 -73 4 -73 -3 0 -6 -4 -11 -10 -11 -5 0
-10 7 -10 15 0 8 -12 17 -27 21 -16 3 -34 7 -40 10 -7 2 -13 -4 -14 -14 0 -14
-2 -14 -9 3 -5 11 -9 14 -9 8 -1 -7 -6 -13 -12 -13 -5 0 -7 5 -4 11 9 13 -3
59 -15 59 -5 0 -7 -7 -4 -15 4 -8 1 -15 -5 -15 -6 0 -11 4 -11 8 0 5 -7 17
-15 28 -14 18 -15 17 -10 -14 4 -25 2 -33 -7 -29 -7 2 -12 11 -12 19 1 10 -5
14 -17 11 -22 -6 -25 -19 -6 -26 6 -3 2 -4 -10 -4 -17 1 -20 5 -12 18 13 25
11 29 -8 29 -14 0 -15 2 -5 9 10 6 9 10 -7 14 -23 6 -25 3 -12 -21 12 -22 -12
-72 -24 -52 -5 8 -1 16 9 22 14 8 15 12 5 25 -12 13 -14 13 -20 -4 -7 -16 -8
-15 -8 5 -1 12 4 22 10 22 5 0 7 5 4 10 -4 6 -11 8 -16 5 -5 -4 -9 -2 -9 3 0
6 7 12 15 16 8 3 15 2 15 -3 0 -12 47 -20 57 -10 4 4 16 2 26 -6 12 -8 14 -15
8 -20 -6 -3 -11 -1 -11 6 0 10 -3 10 -12 1 -9 -9 -9 -15 -1 -23 9 -9 18 -4 38
17 14 15 23 21 20 12 -5 -14 0 -14 39 -5 46 10 64 34 25 33 -18 -1 -22 6 -24
49 -3 39 -2 43 4 19 12 -46 22 -59 32 -43 12 19 11 32 -1 24 -6 -4 -10 6 -9
22 0 25 1 26 10 8 8 -17 9 -16 4 6 -3 17 2 35 15 51 11 14 22 45 26 69 3 24
13 55 21 68 10 16 12 26 4 34 -13 13 -47 -26 -57 -68 -4 -18 -8 -24 -11 -14
-2 8 2 33 9 55 10 30 20 41 46 50 29 9 31 12 18 23 -9 8 -16 9 -16 3 0 -5 -7
-13 -16 -16 -8 -3 -12 -2 -9 4 3 6 1 10 -4 10 -6 0 -11 5 -11 11 0 5 5 7 12 3
7 -5 8 -3 3 6 -13 22 -35 -18 -28 -51 l5 -29 -31 16 c-31 15 -31 17 -25 67 4
29 12 55 18 59 17 11 21 9 9 -3z m-1653 -355 c0 -7 9 -15 19 -19 23 -7 36 -36
20 -46 -23 -14 -1 -58 34 -68 30 -9 29 -9 -23 -12 -52 -2 -53 -3 -12 -6 23 -2
42 -8 42 -14 0 -5 7 -9 15 -9 14 0 14 -3 0 -30 -9 -16 -18 -30 -21 -30 -3 0
-2 5 1 10 4 6 -10 10 -37 9 -41 -1 -42 -2 -15 -12 28 -11 35 -31 16 -42 -5 -4
-19 1 -29 10 -18 16 -18 16 -13 -5 5 -19 3 -20 -21 -14 -15 3 -26 2 -26 -4 0
-18 30 -22 75 -11 31 8 49 8 64 0 22 -12 28 -36 11 -46 -5 -3 -10 -17 -10 -30
0 -22 -3 -24 -29 -19 -22 5 -35 1 -53 -16 -21 -19 -23 -20 -27 -4 -2 10 2 20
8 22 6 2 11 12 11 23 0 26 -30 25 -37 -1 -3 -13 -12 -20 -22 -18 -20 4 -29 78
-9 78 11 0 11 2 0 9 -8 4 -43 9 -80 10 -36 1 -68 4 -70 6 -3 3 1 12 9 21 13
16 11 17 -21 11 -19 -3 -29 -3 -22 0 6 2 12 11 12 19 0 9 5 12 12 8 8 -5 9 -2
5 10 -5 11 -3 15 5 10 8 -5 9 -2 5 10 -5 11 -3 15 5 10 7 -5 9 -2 6 7 -4 10 1
15 13 15 22 0 25 -14 5 -22 -19 -7 -28 -32 -14 -40 7 -5 8 -2 3 6 -6 10 -4 12
8 7 9 -3 19 -2 22 3 4 6 1 10 -6 10 -8 0 -8 4 1 15 8 10 9 19 3 28 -8 11 -9
21 -5 52 2 10 42 40 42 31 0 -3 -8 -12 -17 -22 -10 -10 -18 -25 -19 -34 -1
-21 38 -15 60 9 17 19 32 103 18 99 -6 -2 -9 2 -8 7 0 6 5 9 10 7 5 -2 6 5 2
14 -4 12 -2 15 9 10 8 -3 15 0 15 7 0 8 4 6 10 -3 9 -14 15 -6 10 15 -1 5 8 1
19 -9 12 -11 21 -25 21 -32z"/>
</g>
</svg>
